<?xml version="1.0" encoding="UTF-8"?>
<svg version="1.1" xmlns="http://www.w3.org/2000/svg" width="551" height="151">
<path d="M0 0 C181.83 0 363.66 0 551 0 C551 49.83 551 99.66 551 151 C369.17 151 187.34 151 0 151 C0 101.17 0 51.34 0 0 Z " fill="#141414" transform="translate(0,0)"/>
<path d="M0 0 C181.83 0 363.66 0 551 0 C551 49.83 551 99.66 551 151 C369.17 151 187.34 151 0 151 C0 101.17 0 51.34 0 0 Z M8 9 C8 52.89 8 96.78 8 142 C184.88 142 361.76 142 544 142 C544 98.11 544 54.22 544 9 C367.12 9 190.24 9 8 9 Z " fill="#FEFBF4" transform="translate(0,0)"/>
<path d="M0 0 C10.26975209 -0.25328985 22.10966742 0.13709986 31.296875 5.1640625 C33.2449586 10.2270859 33.57950586 15.02112191 33.52734375 20.3828125 C33.5273362 21.57599091 33.5273362 21.57599091 33.52732849 22.79327393 C33.5238105 25.41702935 33.50481598 28.04038807 33.484375 30.6640625 C33.47611495 32.50683468 33.46814524 34.34960819 33.46044922 36.19238281 C33.42856055 42.18322543 33.3665131 48.17355246 33.296875 54.1640625 C33.2788382 55.7562561 33.2788382 55.7562561 33.26043701 57.38061523 C33.18445667 63.84924452 33.09086779 70.3173346 32.97647095 76.78540039 C32.94021077 78.86331709 32.90664115 80.94128256 32.87582397 83.01928711 C32.83063976 85.93761809 32.77267948 88.85541558 32.7109375 91.7734375 C32.69937119 92.63729065 32.68780487 93.5011438 32.67588806 94.39117432 C32.41544425 104.96983007 32.41544425 104.96983007 28.546875 108.9765625 C22.91643566 111.94818326 16.18657449 111.31910256 9.984375 111.2890625 C9.02192871 111.28712891 8.05948242 111.28519531 7.06787109 111.28320312 C-1.54677588 111.23195089 -10.1139367 110.8019863 -18.703125 110.1640625 C-19.363125 108.8440625 -20.023125 107.5240625 -20.703125 106.1640625 C-21.363125 106.1640625 -22.023125 106.1640625 -22.703125 106.1640625 C-25.75340779 101.08717886 -26.12088443 97.2969931 -26.03125 91.56347656 C-26.02996597 90.72034912 -26.02868195 89.87722168 -26.02735901 89.00854492 C-26.01850588 86.23191197 -25.98694698 83.45612097 -25.953125 80.6796875 C-25.9377644 78.73924236 -25.92304453 76.79879205 -25.90893555 74.8583374 C-25.87545564 70.79306984 -25.82997394 66.72814232 -25.77685547 62.66308594 C-25.71060125 57.47395003 -25.68050765 52.28532231 -25.66036987 47.09582901 C-25.63965305 43.08737915 -25.59624502 39.07940568 -25.54650879 35.0712204 C-25.52608786 33.15928528 -25.51334412 31.24725116 -25.50866699 29.33521271 C-25.43722264 8.77591256 -25.43722264 8.77591256 -19.703125 2.1640625 C-16.20703125 0.75 -16.20703125 0.75 -12.265625 0.5390625 C-11.56332764 0.49168945 -10.86103027 0.44431641 -10.13745117 0.39550781 C-6.76128438 0.19331027 -3.37921261 0.14971195 0 0 Z " fill="#FBF7EF" transform="translate(496.703125,20.8359375)"/>
<path d="M0 0 C9.03240283 -0.31587178 22.20295945 -0.38692828 29.81640625 5.203125 C31.88312377 10.0265833 32.10752579 14.55962488 32.09106445 19.7277832 C32.09617538 20.56276337 32.10128632 21.39774353 32.10655212 22.25802612 C32.12040361 25.00672663 32.11949441 27.75517507 32.1171875 30.50390625 C32.12107745 32.4243326 32.12541274 34.3447581 32.13017273 36.2651825 C32.13762583 40.28741241 32.13735068 44.30955455 32.13208008 48.33178711 C32.12629294 53.46954553 32.14320265 58.60694258 32.16642475 63.7446413 C32.18120589 67.71079079 32.18202773 71.67685419 32.17891502 75.64302635 C32.17942624 77.53632509 32.18462627 79.42962891 32.19472694 81.32290077 C32.20715639 83.9789288 32.20026058 86.63426504 32.1887207 89.2902832 C32.20018631 90.44787895 32.20018631 90.44787895 32.21188354 91.62886047 C32.15476276 97.62026944 31.36842895 104.240637 27.32916737 108.9295702 C20.95148282 114.29877932 4.42191643 111.33973036 -3.43457031 111.22705078 C-5.82063685 111.20628395 -8.19684312 111.23842767 -10.58203125 111.29296875 C-11.79117188 111.28394531 -13.0003125 111.27492188 -14.24609375 111.265625 C-15.26832031 111.27722656 -16.29054688 111.28882813 -17.34375 111.30078125 C-22.01293517 109.49604805 -24.05039851 105.60220744 -26.18359375 101.203125 C-26.88839198 97.6772829 -26.76245781 94.34096805 -26.57421875 90.76171875 C-26.51792172 88.62746647 -26.46264298 86.49318717 -26.40820312 84.35888672 C-26.36880615 83.21087585 -26.32940918 82.06286499 -26.28881836 80.88006592 C-26.17753158 76.99129012 -26.14071836 73.10536078 -26.13085938 69.21533203 C-26.11419086 62.77135322 -26.06982785 56.32846105 -25.99959564 49.8848362 C-25.959885 46.17718812 -25.92774971 42.46979991 -25.91259766 38.76196289 C-25.89738397 35.09650599 -25.862945 31.43168181 -25.81528473 27.7665081 C-25.80061794 26.39241458 -25.79256133 25.01823166 -25.7917099 23.64406013 C-25.77252845 8.27797822 -25.77252845 8.27797822 -21.18359375 2.203125 C-18.13579262 1.07194771 -16.54677228 0.7258455 -13.43359375 0.640625 C-12.68424561 0.58946533 -11.93489746 0.53830566 -11.1628418 0.4855957 C-7.44512772 0.25896766 -3.72054046 0.18066895 0 0 Z " fill="#FCF8F0" transform="translate(114.18359375,20.796875)"/>
<path d="M0 0 C4.74648568 -0.05010501 9.49281143 -0.08604647 14.23950195 -0.10986328 C15.84825325 -0.11981068 17.45698702 -0.13337343 19.06567383 -0.15087891 C43.9950006 -0.41501013 43.9950006 -0.41501013 53 4 C57.97310855 14.19487253 57.48903471 31.07619224 54.1484375 41.7109375 C52.52412893 45.93909949 50.83991162 49.44605346 48 53 C48.8971875 53.2784375 48.8971875 53.2784375 49.8125 53.5625 C53.01193445 55.66498549 54.00774371 58.42854153 55 62 C55.39038103 65.73424904 55.35025949 69.43245717 55.29296875 73.18359375 C55.28872391 74.23909927 55.28447906 75.2946048 55.28010559 76.38209534 C55.26339049 79.73416271 55.22575088 83.0856161 55.1875 86.4375 C55.17244393 88.71809024 55.15875714 90.99868996 55.14648438 93.27929688 C55.1135105 98.85307202 55.06338268 104.42649213 55 110 C43.51295558 110.18451025 43.51295558 110.18451025 37.8125 109 C36.42998047 108.7215625 36.42998047 108.7215625 35.01953125 108.4375 C34.35308594 108.293125 33.68664062 108.14875 33 108 C32.96241577 106.42702148 32.96241577 106.42702148 32.92407227 104.82226562 C32.82931227 100.9009349 32.72926412 96.97975328 32.62768555 93.05859375 C32.58459433 91.36722319 32.54290324 89.67581632 32.50268555 87.984375 C32.44435171 85.54155573 32.38084551 83.09891495 32.31640625 80.65625 C32.29969376 79.91008423 32.28298126 79.16391846 32.26576233 78.3951416 C32.22606552 76.96184743 32.17029165 75.52889089 32.09695435 74.09692383 C32.03114809 72.67366937 32.01332209 71.24754976 32.0385437 69.82299805 C32.05265254 67.4106095 32.05265254 67.4106095 31 64 C28.36 62.68 25.72 61.36 23 60 C23 75.84 23 91.68 23 108 C15.74 108 8.48 108 1 108 C0.03891216 85.25244867 -0.12732117 62.54733769 -0.06866455 39.78222656 C-0.05820907 35.27539561 -0.05382069 30.76855847 -0.04882812 26.26171875 C-0.03828351 17.50779632 -0.02134815 8.75390274 0 0 Z " fill="#FAF6EF" transform="translate(347,22)"/>
<path d="M0 0 C2.87506421 -0.02712325 5.74986908 -0.04689851 8.625 -0.0625 C9.83736328 -0.07506836 9.83736328 -0.07506836 11.07421875 -0.08789062 C15.50341918 -0.1058955 19.63883424 0.10377338 24 1 C31.76423791 26.54278841 38.84335193 52.28211056 46 78 C46.18814384 65.50280681 45.52578937 53.08283101 44.85449219 40.60864258 C44.18537447 28.05813364 43.87030683 15.56852942 44 3 C47.96 3 51.92 3 56 3 C57.03500744 8.11275598 57.1480425 13.00904602 57.14526367 18.19897461 C57.14862228 19.10544235 57.1519809 20.0119101 57.15544128 20.94584656 C57.16491169 23.9313597 57.1668923 26.91681654 57.16796875 29.90234375 C57.17118359 31.98450239 57.17454783 34.0666608 57.17805481 36.14881897 C57.18403596 40.50896732 57.1858957 44.86909588 57.18530273 49.22924805 C57.18520106 54.80879081 57.19886289 60.38820645 57.21607494 65.96771908 C57.22720636 70.26661255 57.2292216 74.56547538 57.22869301 78.86438179 C57.22987103 80.9212138 57.2342828 82.97804665 57.24202538 85.03486443 C57.25185005 87.91387668 57.24893759 90.79261395 57.24291992 93.67163086 C57.24853943 94.51600708 57.25415894 95.3603833 57.25994873 96.23034668 C57.23363286 101.19855008 56.59124463 105.28681827 55 110 C50.34462644 110.92092281 45.85314567 111.12205997 41.125 111.0625 C40.43664062 111.05798828 39.74828125 111.05347656 39.0390625 111.04882812 C37.35933665 111.03716336 35.67965625 111.01923271 34 111 C32.44527314 105.86073216 30.89724042 100.71951208 29.35522461 95.57641602 C28.83034259 93.82912627 28.30367432 92.08237204 27.77514648 90.33618164 C27.01329429 87.81797651 26.2580068 85.2978795 25.50390625 82.77734375 C25.15073082 81.6175425 25.15073082 81.6175425 24.79042053 80.43431091 C23.45836043 75.95540698 22.54040163 71.64315228 22 67 C21.97494385 68.29736084 21.9498877 69.59472168 21.92407227 70.93139648 C21.83018248 75.72658856 21.72991751 80.5216295 21.62768555 85.31665039 C21.58426666 87.39539057 21.54259688 89.47416803 21.50268555 91.55297852 C21.44515079 94.53413145 21.38140881 97.51509549 21.31640625 100.49609375 C21.29133751 101.89921059 21.29133751 101.89921059 21.26576233 103.33067322 C21.24581711 104.19149002 21.22587189 105.05230682 21.20532227 105.93920898 C21.18977798 106.70087875 21.1742337 107.46254852 21.15821838 108.24729919 C21 110 21 110 20 111 C16.8617655 111.24966567 13.70950387 111.18521791 10.5625 111.1875 C9.23508789 111.20586914 9.23508789 111.20586914 7.88085938 111.22460938 C7.03458984 111.22654297 6.18832031 111.22847656 5.31640625 111.23046875 C4.53724854 111.23457764 3.75809082 111.23868652 2.95532227 111.24291992 C1 111 1 111 -1 109 C-1.23047829 107.05161095 -1.23047829 107.05161095 -1.20254517 104.62142944 C-1.19688034 103.70153732 -1.19121552 102.7816452 -1.18537903 101.83387756 C-1.16883774 100.82183762 -1.15229645 99.80979767 -1.13525391 98.76708984 C-1.12579239 97.7036586 -1.11633087 96.64022736 -1.10658264 95.54457092 C-1.07280492 92.01652194 -1.02471677 88.48881719 -0.9765625 84.9609375 C-0.95040571 82.51999826 -0.92513789 80.07904935 -0.90072632 77.63809204 C-0.83397418 71.20340768 -0.75510322 64.76892597 -0.67376709 58.33441162 C-0.59294565 51.77249957 -0.5235042 45.21046839 -0.453125 38.6484375 C-0.313265 25.76548332 -0.16099708 12.88270647 0 0 Z " fill="#F9F5ED" transform="translate(156,21)"/>
<path d="M0 0 C9.57 0 19.14 0 29 0 C29 31.35 29 62.7 29 95 C30.56452908 91.87094184 31.30321594 90.18569592 31.85375977 86.92504883 C31.99052628 86.13354935 32.12729279 85.34204987 32.26820374 84.52656555 C32.40786057 83.67861923 32.5475174 82.83067291 32.69140625 81.95703125 C32.841577 81.07399826 32.99174774 80.19096527 33.14646912 79.28117371 C33.46288128 77.41313584 33.77620895 75.54457326 34.08666992 73.67553711 C34.55807442 70.83912842 35.0389119 68.00444954 35.52148438 65.16992188 C35.82868544 63.3490528 36.13534328 61.52809197 36.44140625 59.70703125 C36.58308731 58.86920609 36.72476837 58.03138092 36.8707428 57.16816711 C37.51977275 53.24691084 38.08438097 49.34940884 38.47241211 45.39331055 C38.84646081 41.79743797 39.57834683 38.43581924 40.50946045 34.94750977 C41.31766724 31.7388172 41.78821954 28.4874093 42.2890625 25.21875 C42.39721283 24.51979614 42.50536316 23.82084229 42.61679077 23.10070801 C42.95634866 20.90099157 43.29076657 18.70053106 43.625 16.5 C43.85642901 14.99473907 44.08819691 13.48953021 44.3203125 11.984375 C44.88412041 8.32350923 45.44332636 4.66195823 46 1 C51.57171567 0.94989214 57.07115061 0.98336285 62.625 1.5 C63.64851563 1.5928125 64.67203125 1.685625 65.7265625 1.78125 C66.85191406 1.88953125 66.85191406 1.88953125 68 2 C67.6733553 4.6675984 67.33801928 7.33382548 67 10 C66.78150391 11.75957031 66.78150391 11.75957031 66.55859375 13.5546875 C65.10996835 24.89274768 65.10996835 24.89274768 64 29.4375 C62.99288102 33.58399766 62.49585739 37.76826393 62 42 C61.4168126 46.96335763 60.72100317 51.8160574 59.52758789 56.67236328 C57.94001285 63.67650047 57.00224826 70.83416716 56.03515625 77.9453125 C55.87466797 79.12480469 55.71417969 80.30429688 55.54882812 81.51953125 C55.22364354 83.93033742 54.90335862 86.34180938 54.58789062 88.75390625 C53.62711014 95.7434886 52.29350785 102.32187301 50 109 C38.93467093 109.10617053 28.03072025 108.96186992 17 108 C14.15102355 99.51040942 12.17841887 91.29663553 11.03515625 82.421875 C10.79725624 80.68351379 10.79725624 80.68351379 10.55455017 78.91003418 C10.04743328 75.19127026 9.55492031 71.4707355 9.0625 67.75 C8.54208597 63.90659437 8.01787792 60.06371945 7.49325562 56.22088623 C7.14752204 53.68756041 6.8029693 51.15407314 6.45962524 48.62042236 C4.901019 37.15174046 3.18215648 25.71154773 1.37133789 14.28027344 C1.09471313 12.50958496 1.09471313 12.50958496 0.8125 10.703125 C0.65394531 9.70958008 0.49539062 8.71603516 0.33203125 7.69238281 C0 5 0 5 0 0 Z " fill="#FCF8F0" transform="translate(219,22)"/>
<path d="M0 0 C2.07386344 0.00315066 4.14628387 -0.02031443 6.2199707 -0.0456543 C13.86063387 -0.08033308 20.62022893 0.49306248 27.77661133 3.31567383 C27.80129393 8.26358677 27.81946299 13.21146403 27.83154297 18.15942383 C27.83657785 19.84334945 27.84340614 21.52727068 27.85205078 23.21118164 C27.86415329 25.62883586 27.86984801 28.04643239 27.87426758 30.46411133 C27.87942886 31.21937103 27.88459015 31.97463074 27.88990784 32.7527771 C27.89048303 38.08793041 27.89048303 38.08793041 26.77661133 40.31567383 C19.77421385 41.77715424 12.8022082 41.2504618 5.77661133 40.31567383 C5.64383789 39.02790039 5.51106445 37.74012695 5.37426758 36.41333008 C5.19611234 34.73492021 5.01771441 33.0565361 4.83911133 31.37817383 C4.70859375 30.10296875 4.70859375 30.10296875 4.57543945 28.80200195 C4.44492188 27.58867188 4.44492188 27.58867188 4.31176758 26.35083008 C4.19393921 25.22753296 4.19393921 25.22753296 4.07373047 24.08154297 C3.94853753 22.29427369 3.94853753 22.29427369 2.77661133 21.31567383 C0.443637 21.27474445 -1.89044092 21.2732566 -4.22338867 21.31567383 C-6.07129186 26.80642964 -6.50360177 31.5604841 -6.41088867 37.33129883 C-6.40371826 38.19587708 -6.39654785 39.06045532 -6.38916016 39.95123291 C-6.26381429 50.33242379 -5.7468436 60.69845578 -5.22338867 71.06567383 C-5.07909336 73.98741182 -4.93621904 76.9092076 -4.79541016 79.83111572 C-4.70862852 81.62545602 -4.61975384 83.41969689 -4.52832031 85.21380615 C-4.28086419 90.25516448 -4.18271813 95.26816852 -4.22338867 100.31567383 C-0.59338867 100.31567383 3.03661133 100.31567383 6.77661133 100.31567383 C6.77661133 90.41567383 6.77661133 80.51567383 6.77661133 70.31567383 C14.03661133 70.31567383 21.29661133 70.31567383 28.77661133 70.31567383 C28.86595627 82.37724121 28.6391056 94.28695905 27.77661133 106.31567383 C21.8756851 109.68314801 17.61118109 110.92533827 10.85864258 110.88208008 C10.03837082 110.88827866 9.21809906 110.89447723 8.37297058 110.90086365 C6.65279315 110.9079193 4.93254682 110.90486279 3.21240234 110.89208984 C0.58474805 110.87815068 -2.03938964 110.91243996 -4.66674805 110.95043945 C-6.34578537 110.95139015 -8.02482714 110.9495345 -9.70385742 110.94458008 C-10.48415817 110.95783829 -11.26445892 110.9710965 -12.06840515 110.98475647 C-16.0501089 110.91682309 -17.95052492 110.53624296 -21.08325195 108.00390625 C-21.78949707 107.11678955 -22.49574219 106.22967285 -23.22338867 105.31567383 C-23.73603271 104.70175781 -24.24867676 104.0878418 -24.77685547 103.45532227 C-28.55009241 97.89572563 -28.99920021 93.18235798 -29.03588867 86.56567383 C-29.0588501 85.47802734 -29.08181152 84.39038086 -29.10546875 83.26977539 C-29.16193963 80.04548449 -29.1911741 76.82211969 -29.20837402 73.59741211 C-29.2246983 71.11665236 -29.25211601 68.63616204 -29.28100586 66.15551758 C-29.74997387 24.17482759 -29.74997387 24.17482759 -27.22338867 5.31567383 C-18.06699968 1.20464203 -9.98924489 -0.03170443 0 0 Z " fill="#FCF8F0" transform="translate(52.223388671875,21.684326171875)"/>
<path d="M0 0 C1.57189087 -0.02707031 1.57189087 -0.02707031 3.17553711 -0.0546875 C10.21964033 -0.00166202 17.22532808 0.79016723 23.375 4.5 C25.65814802 9.63206355 24.80634174 16.66539169 25 22.1875 C25.0515625 23.44884766 25.103125 24.71019531 25.15625 26.00976562 C25.20007813 27.20666016 25.24390625 28.40355469 25.2890625 29.63671875 C25.3298291 30.73717529 25.3705957 31.83763184 25.41259766 32.97143555 C25.375 35.5 25.375 35.5 24.375 36.5 C22.74027118 36.58700342 21.10185945 36.60701063 19.46484375 36.59765625 C18.47548828 36.59443359 17.48613281 36.59121094 16.46679688 36.58789062 C15.42587891 36.57951172 14.38496094 36.57113281 13.3125 36.5625 C12.26771484 36.55798828 11.22292969 36.55347656 10.14648438 36.54882812 C7.55596546 36.53699927 4.96547578 36.51906319 2.375 36.5 C2.045 31.88 1.715 27.26 1.375 22.5 C-4.565 22.5 -10.505 22.5 -16.625 22.5 C-16.625 29.43 -16.625 36.36 -16.625 43.5 C-14.92730469 43.48839844 -13.22960937 43.47679687 -11.48046875 43.46484375 C-9.2578136 43.45546546 -7.03515726 43.4463653 -4.8125 43.4375 C-3.69294922 43.42912109 -2.57339844 43.42074219 -1.41992188 43.41210938 C0.18979492 43.40727539 0.18979492 43.40727539 1.83203125 43.40234375 C2.82178955 43.39710693 3.81154785 43.39187012 4.83129883 43.38647461 C7.375 43.5 7.375 43.5 10.375 44.5 C12.60074335 44.72451458 14.83081519 44.90782878 17.0625 45.0625 C18.24199219 45.14628906 19.42148437 45.23007813 20.63671875 45.31640625 C21.99216797 45.40728516 21.99216797 45.40728516 23.375 45.5 C26.6427942 56.78624718 25.47936067 69.8008395 25.5 81.4375 C25.5025882 82.11253571 25.50517639 82.78757141 25.50784302 83.48306274 C25.51755549 86.70130723 25.49721628 89.91465094 25.43066406 93.13232422 C25.39706289 95.16519528 25.41486153 97.20108662 25.53027344 99.23095703 C25.5562683 101.7176259 25.44232189 103.25146158 24.375 105.5 C17.46981884 112.00040651 8.80878227 112.42320135 -0.20507812 112.22729492 C-2.25600928 112.18738306 -4.30051349 112.20672257 -6.3515625 112.23242188 C-13.95999108 112.22971845 -20.72020674 111.75556069 -26.625 106.5 C-27.94140625 104.09765625 -27.94140625 104.09765625 -28.1875 101.5625 C-28.28804688 100.60085937 -28.38859375 99.63921875 -28.4921875 98.6484375 C-28.93351622 88.18635081 -28.51237107 77.92661006 -27.625 67.5 C-25.56222893 67.64194764 -23.49978969 67.78872216 -21.4375 67.9375 C-19.71466797 68.05931641 -19.71466797 68.05931641 -17.95703125 68.18359375 C-14.625 68.5 -14.625 68.5 -9.625 69.5 C-9.625 76.43 -9.625 83.36 -9.625 90.5 C-2.695 90.995 -2.695 90.995 4.375 91.5 C4.045 81.6 3.715 71.7 3.375 61.5 C-2.75625757 61.2521528 -2.75625757 61.2521528 -8.88818359 61.02197266 C-14.95594903 60.74746372 -20.70660198 59.85573532 -26.625 58.5 C-27.60828599 40.23075547 -27.79669734 22.68796524 -25.625 4.5 C-17.15149345 0.72651001 -9.16915171 0.06499583 0 0 Z " fill="#FBF7EF" transform="translate(437.625,20.5)"/>
<path d="M0 0 C16.17 0 32.34 0 49 0 C49 9.24 49 18.48 49 28 C39.57155258 28.08811633 30.4020523 27.8451283 21 27 C21 31.95 21 36.9 21 42 C28.92 42 36.84 42 45 42 C45 52 45 52 44 55 C36.08 55.33 28.16 55.66 20 56 C20 66.56 20 77.12 20 88 C28.91 88 37.82 88 47 88 C47 94.93 47 101.86 47 109 C31.82 109 16.64 109 1 109 C-1.29032077 99.83871692 -1.09879284 90.26987105 -1.125 80.875 C-1.13188843 79.51689209 -1.13188843 79.51689209 -1.13891602 78.13134766 C-1.12896945 73.72859866 -0.97355566 69.41240557 -0.49780273 65.03442383 C0.12873526 58.3583507 0.12568753 51.72026554 0.09765625 45.01953125 C0.0962413 43.72552902 0.09482635 42.43152679 0.09336853 41.09831238 C0.08959305 37.69703149 0.07980669 34.29579491 0.06866455 30.89453125 C0.05834213 27.40820933 0.05379273 23.92187987 0.04882812 20.43554688 C0.03871246 13.62365909 0.01912856 6.81189216 0 0 Z " fill="#FBF7EF" transform="translate(292,22)"/>
<path d="M0 0 C2.97922593 -0.02683987 5.95821295 -0.04676037 8.9375 -0.0625 C9.78763672 -0.07087891 10.63777344 -0.07925781 11.51367188 -0.08789062 C12.32255859 -0.09111328 13.13144531 -0.09433594 13.96484375 -0.09765625 C14.7137085 -0.10289307 15.46257324 -0.10812988 16.23413086 -0.11352539 C18 0 18 0 19 1 C19.27306364 4.36396049 19.18960859 7.75152602 19.1875 11.125 C19.1884668 12.72879517 19.1884668 12.72879517 19.18945312 14.36499023 C19.08615668 31.25982832 17.97251921 48.13739623 17 65 C12.53665816 66.72293135 8.89798769 67.22240791 4.125 67.125 C2.97257812 67.10695313 1.82015625 67.08890625 0.6328125 67.0703125 C-0.23601562 67.04710938 -1.10484375 67.02390625 -2 67 C-2.04635413 58.85491762 -2.08188479 50.70989042 -2.10362434 42.56470871 C-2.11405858 38.78251229 -2.12821116 35.00040617 -2.15087891 31.21826172 C-2.17262021 27.56782392 -2.18457134 23.91747295 -2.18975449 20.2669754 C-2.19344794 18.87472416 -2.20066034 17.48247762 -2.21146011 16.09026337 C-2.22599126 14.13932433 -2.22681706 12.18829782 -2.22705078 10.23730469 C-2.231492 9.1269989 -2.23593323 8.01669312 -2.24050903 6.8727417 C-2.0035883 4.04286013 -1.46836296 2.39834586 0 0 Z " fill="#151515" transform="translate(489,52)"/>
<path d="M0 0 C2.95839355 -0.02689449 5.91654427 -0.04678741 8.875 -0.0625 C9.71675781 -0.07087891 10.55851562 -0.07925781 11.42578125 -0.08789062 C12.23144531 -0.09111328 13.03710938 -0.09433594 13.8671875 -0.09765625 C14.98262939 -0.10551147 14.98262939 -0.10551147 16.12060547 -0.11352539 C18 0 18 0 20 1 C20.11181474 13.43983391 19.88208707 25.82371626 19.25537109 38.24853516 C19.1226755 40.92182954 19.00453902 43.59554442 18.88671875 46.26953125 C18.80295639 47.98962607 18.71835376 49.70968023 18.6328125 51.4296875 C18.59938751 52.21922821 18.56596252 53.00876892 18.53152466 53.82223511 C18.31074905 57.91296576 17.90456304 61.3410733 16 65 C11.20732876 68.74007522 3.73276779 67.10616237 -2 67 C-2.05508138 53.39752203 -1.94589377 39.80794984 -1.62768555 26.20898438 C-1.56109442 23.31389139 -1.50216482 20.41869799 -1.44335938 17.5234375 C-1.40150078 15.66926041 -1.35920084 13.81509322 -1.31640625 11.9609375 C-1.29969376 11.10172699 -1.28298126 10.24251648 -1.26576233 9.35726929 C-1.18160956 6.01193642 -1.06465541 3.19396623 0 0 Z " fill="#151515" transform="translate(105,52)"/>
<path d="M0 0 C7.56220495 -0.24220585 13.50700359 -0.32866427 20 4 C21.2062252 7.61867559 21.10816918 10.92506251 21.0625 14.6875 C21.05798828 15.38939453 21.05347656 16.09128906 21.04882812 16.81445312 C21.03706927 18.54300538 21.01913454 20.27151365 21 22 C17.1584024 24.56780471 13.1860825 24.22688882 8.75 24.125 C8.00492187 24.11597656 7.25984375 24.10695313 6.4921875 24.09765625 C4.66131941 24.07418358 2.83061762 24.03831525 1 24 C0.3533402 15.98603754 -0.16677223 8.04212755 0 0 Z " fill="#131313" transform="translate(359,40)"/>
</svg>
